<mxfile host="app.diagrams.net" modified="2022-03-02T07:43:05.696Z" agent="5.0 (Windows NT 10.0; Win64; x64) AppleWebKit/537.36 (KHTML, like Gecko) Chrome/98.0.4758.102 Safari/537.36 Edg/98.0.1108.62" etag="WGwVH47f6P5wXfORzEa2" version="16.6.4" type="github">
  <diagram id="yPxyJZ8AM_hMuL3Unpa9" name="gitflow">
    <mxGraphModel dx="813" dy="435" grid="1" gridSize="10" guides="1" tooltips="1" connect="1" arrows="1" fold="1" page="1" pageScale="1" pageWidth="850" pageHeight="1100" math="0" shadow="0">
      <root>
        <mxCell id="0" />
        <mxCell id="1" parent="0" />
        <mxCell id="9IIYB5IX4-2PKWAg7d3J-177" value="@PostConstruct" style="rounded=1;whiteSpace=wrap;html=1;strokeWidth=2;fillWeight=4;hachureGap=8;hachureAngle=45;fillColor=#fff2cc;sketch=1;strokeColor=#d6b656;" vertex="1" parent="1">
          <mxGeometry x="270" y="70" width="180" height="60" as="geometry" />
        </mxCell>
        <mxCell id="9IIYB5IX4-2PKWAg7d3J-178" value="&lt;span style=&quot;color: rgb(72 , 180 , 86) ; font-family: monospace ; font-size: 15px ; letter-spacing: 0.544px ; text-align: left ; background-color: rgba(235 , 235 , 235 , 0.35)&quot;&gt;InitializingBean.&lt;br&gt;afterPropertiesSet()&lt;/span&gt;" style="rounded=1;whiteSpace=wrap;html=1;strokeWidth=2;fillWeight=4;hachureGap=8;hachureAngle=45;fillColor=#e1d5e7;sketch=1;strokeColor=#9673a6;" vertex="1" parent="1">
          <mxGeometry x="270" y="130" width="180" height="60" as="geometry" />
        </mxCell>
        <mxCell id="9IIYB5IX4-2PKWAg7d3J-181" value="&lt;span style=&quot;color: rgb(102 , 55 , 24) ; font-family: &amp;#34;helvetica neue&amp;#34; , &amp;#34;helvetica&amp;#34; , sans-serif ; font-size: 15px ; letter-spacing: 0.544px ; text-align: left ; background-color: rgb(255 , 255 , 255)&quot;&gt;init-method&amp;nbsp;&lt;/span&gt;" style="rounded=1;whiteSpace=wrap;html=1;strokeWidth=2;fillWeight=4;hachureGap=8;hachureAngle=45;fillColor=#1ba1e2;sketch=1;" vertex="1" parent="1">
          <mxGeometry x="270" y="190" width="180" height="50" as="geometry" />
        </mxCell>
        <mxCell id="9IIYB5IX4-2PKWAg7d3J-183" value="" style="shape=curlyBracket;whiteSpace=wrap;html=1;rounded=1;" vertex="1" parent="1">
          <mxGeometry x="230" y="90" width="20" height="120" as="geometry" />
        </mxCell>
        <mxCell id="9IIYB5IX4-2PKWAg7d3J-184" value="初始化" style="text;html=1;strokeColor=none;fillColor=none;align=center;verticalAlign=middle;whiteSpace=wrap;rounded=0;" vertex="1" parent="1">
          <mxGeometry x="170" y="135" width="60" height="30" as="geometry" />
        </mxCell>
      </root>
    </mxGraphModel>
  </diagram>
</mxfile>
